arm26_states
version=1
nRows=31
nColumns=17
inDegrees=yes

# SIMM Motion File Header:
name arm26_states
datacolumns 17
datarows 31
otherdata 1
range 0.00000000 0.17191518
endheader
time	/jointset/r_shoulder/r_shoulder_elev/value	/jointset/r_shoulder/r_shoulder_elev/speed	/jointset/r_elbow/r_elbow_flex/value	/jointset/r_elbow/r_elbow_flex/speed	/forceset/TRIlong/activation	/forceset/TRIlong/fiber_length	/forceset/TRIlat/activation	/forceset/TRIlat/fiber_length	/forceset/TRImed/activation	/forceset/TRImed/fiber_length	/forceset/BIClong/activation	/forceset/BIClong/fiber_length	/forceset/BICshort/activation	/forceset/BICshort/fiber_length	/forceset/BRA/activation	/forceset/BRA/fiber_length
      0.00000000	     -4.47342698	     18.17367149	     44.41526737	    -38.06259344	     -0.10313135	      0.15137164	      0.13838833	      0.08729981	      0.13838833	      0.08235836	      0.19938109	      0.13181148	     -0.03985923	      0.13234346	     -0.09159599	      0.08312554
      0.00361011	     -4.40686700	     18.69431643	     44.27889124	    -37.48109404	     -0.10354947	      0.15135984	      0.13015283	      0.08725527	      0.13015283	      0.08231383	      0.18634728	      0.13188103	     -0.04008325	      0.13240820	     -0.09187745	      0.08315521
      0.00896556	     -4.30487691	     19.37897690	     44.08063668	    -36.57243340	     -0.10421207	      0.15134523	      0.11907000	      0.08720965	      0.11907000	      0.08226714	      0.16979324	      0.13202718	     -0.04034053	      0.13250243	     -0.09231266	      0.08319858
      0.01432101	     -4.19938597	     20.01463209	     43.88663153	    -35.95514199	     -0.10489618	      0.15133442	      0.10919216	      0.08717435	      0.10919216	      0.08222962	      0.15611547	      0.13220099	     -0.04047787	      0.13259366	     -0.09273890	      0.08324101
      0.01967647	     -4.09050473	     20.64586192	     43.69463025	    -35.82685833	     -0.10558143	      0.15132676	      0.10036686	      0.08714258	      0.10036686	      0.08219493	      0.14488832	      0.13237902	     -0.04029471	      0.13268230	     -0.09313853	      0.08328283
      0.02503192	     -3.97829663	     21.25000021	     43.50218925	    -36.08916830	     -0.10626757	      0.15132129	      0.09244192	      0.08711122	      0.09244192	      0.08216031	      0.13571116	      0.13254970	     -0.03834482	      0.13276944	     -0.09353128	      0.08332452
      0.03318226	     -3.80182964	     22.01025975	     43.20530140	    -36.77487017	     -0.10731289	      0.15131537	      0.08186003	      0.08706083	      0.08186003	      0.08210468	      0.12496923	      0.13278780	     -0.03176473	      0.13290162	     -0.09411624	      0.08338864
      0.03943280	     -3.66297245	     22.38489828	     42.97404470	    -37.17891007	     -0.10811508	      0.15131175	      0.07477823	      0.08701876	      0.07477823	      0.08205860	      0.11886880	      0.13295224	     -0.02391723	      0.13300377	     -0.09455617	      0.08343863
      0.04568334	     -3.52246688	     22.53294696	     42.74122657	    -37.24783633	     -0.10891757	      0.15130858	      0.06845864	      0.08697357	      0.06845864	      0.08200950	      0.11425928	      0.13310188	     -0.01386633	      0.13310665	     -0.09499526	      0.08348914
      0.05193389	     -3.38179836	     22.43524231	     42.50936397	    -36.85804557	     -0.10972026	      0.15130580	      0.06279805	      0.08692589	      0.06279805	      0.08195806	      0.11085474	      0.13323777	     -0.00190118	      0.13320953	     -0.09544314	      0.08353969
      0.05662456	     -3.27706496	     22.19739427	     42.33784509	    -36.22337891	     -0.11032273	      0.15130406	      0.05893320	      0.08688908	      0.05893320	      0.08191856	      0.10894071	      0.13333135	      0.00817299	      0.13328603	     -0.09578607	      0.08357728
      0.05838869	     -3.23801377	     22.07146123	     42.27421614	    -35.90455747	     -0.11054934	      0.15130352	      0.05755750	      0.08687513	      0.05755750	      0.08190362	      0.10834630	      0.13336476	      0.01203009	      0.13330851	     -0.09591659	      0.08359127
      0.06051547	     -3.19126369	     21.88403932	     42.19833764	    -35.43022929	     -0.11082254	      0.15130296	      0.05595253	      0.08685829	      0.05595253	      0.08188563	      0.10770778	      0.13340378	      0.01540415	      0.13330175	     -0.09607494	      0.08360800
      0.06310595	     -3.13493904	     21.58894975	     42.10749359	    -34.67107665	     -0.11115531	      0.15130246	      0.05407352	      0.08683786	      0.05407352	      0.08186383	      0.10703172	      0.13344949	      0.01815758	      0.13327339	     -0.09626907	      0.08362811
      0.06793617	     -3.03238056	     20.83269492	     41.94453105	    -32.68379406	     -0.11177585	      0.15130224	      0.05077909	      0.08680047	      0.05077909	      0.08182400	      0.10604914	      0.13352941	      0.02111306	      0.13322349	     -0.09663474	      0.08366452
      0.07276640	     -2.93407316	     19.83636051	     41.79281969	    -30.03591867	     -0.11239643	      0.15130313	      0.04773684	      0.08676504	      0.04773684	      0.08178631	      0.10535210	      0.13360235	      0.02265318	      0.13319984	     -0.09700462	      0.08369890
      0.07759662	     -2.84105764	     18.65012157	     41.65518024	    -26.88412012	     -0.11301704	      0.15130568	      0.04492481	      0.08673281	      0.04492481	      0.08175201	      0.10488801	      0.13366815	      0.02357820	      0.13319833	     -0.09737855	      0.08373060
      0.08441042	     -2.72035562	     16.73945175	     41.48883581	    -21.84919156	     -0.11389254	      0.15131307	      0.04131057	      0.08669489	      0.04131057	      0.08171148	      0.10449321	      0.13374862	      0.02432856	      0.13321249	     -0.09791422	      0.08376986
      0.09122422	     -2.61334933	     14.64717148	     41.35830192	    -16.42651611	     -0.11476806	      0.15132562	      0.03806576	      0.08666789	      0.03806576	      0.08168217	      0.10429066	      0.13381467	      0.02473091	      0.13323839	     -0.09845820	      0.08380191
      0.09803802	     -2.52094611	     12.46724205	     41.26518236	    -10.91162945	     -0.11564360	      0.15134371	      0.03514775	      0.08665328	      0.03514775	      0.08166546	      0.10417053	      0.13386668	      0.02489370	      0.13326821	     -0.09900992	      0.08382631
      0.10485182	     -2.44347722	     10.27443260	     41.20926989	     -5.53929080	     -0.11651913	      0.15136725	      0.03251926	      0.08665130	      0.03251926	      0.08166169	      0.10404994	      0.13390534	      0.02490161	      0.13329557	     -0.09956890	      0.08384300
      0.11315334	     -2.36901103	      7.69148161	     41.18880632	      0.48548331	     -0.11758581	      0.15140261	      0.02966230	      0.08666178	      0.02966230	      0.08167063	      0.10381754	      0.13393576	      0.02487509	      0.13331881	     -0.10025705	      0.08385326
      0.11933091	     -2.32712295	      5.88862425	     41.20423517	      4.42741408	     -0.11837956	      0.15143292	      0.02775381	      0.08668040	      0.02775381	      0.08168793	      0.10354771	      0.13394763	      0.02483121	      0.13332660	     -0.10077407	      0.08385398
      0.12460363	     -2.29993659	      4.43602215	     41.23559456	      7.41130897	     -0.11905703	      0.15146086	      0.02625612	      0.08670417	      0.02625612	      0.08171051	      0.10324129	      0.13395125	      0.02477564	      0.13332608	     -0.10121818	      0.08384931
      0.13033246	     -2.27886073	      2.93217422	     41.28649913	     10.30924571	     -0.11979309	      0.15149280	      0.02475431	      0.08673784	      0.02475431	      0.08174279	      0.10283085	      0.13394691	      0.02469701	      0.13331390	     -0.10170214	      0.08383990
      0.13606129	     -2.26624946	      1.47584428	     41.35323086	     12.95510848	     -0.12052912	      0.15152588	      0.02337266	      0.08677880	      0.02337266	      0.08178226	      0.10234476	      0.13393223	      0.02460064	      0.13329154	     -0.10218604	      0.08382679
      0.14323206	     -2.26210875	     -0.31788364	     41.45733879	     16.05016422	     -0.12145039	      0.15156827	      0.02179605	      0.08683894	      0.02179605	      0.08184041	      0.10165043	      0.13390222	      0.02445884	      0.13325174	     -0.10279313	      0.08380573
      0.15040284	     -2.27078145	     -2.10022011	     41.58303862	     18.98704966	     -0.12237164	      0.15161127	      0.02037350	      0.08690766	      0.02037350	      0.08190708	      0.10089032	      0.13386171	      0.02429920	      0.13320066	     -0.10340161	      0.08377984
      0.15757362	     -2.29221774	     -3.87819334	     41.72934750	     21.80171258	     -0.12329286	      0.15165447	      0.01909128	      0.08698406	      0.01909128	      0.08198143	      0.10010184	      0.13381239	      0.02412932	      0.13313945	     -0.10401031	      0.08374937
      0.16474440	     -2.32638635	     -5.65043213	     41.89543252	     24.50141154	     -0.12421407	      0.15169753	      0.01793675	      0.08706751	      0.01793675	      0.08206288	      0.09932464	      0.13375529	      0.02395647	      0.13306869	     -0.10462052	      0.08371451
      0.17191518	     -2.37322476	     -7.41107160	     42.08043684	     27.07753238	     -0.12513527	      0.15174015	      0.01689821	      0.08715756	      0.01689821	      0.08215099	      0.09859647	      0.13369080	      0.02378688	      0.13298879	     -0.10523578	      0.08367548
